HIERARCHY
ROOT Hips
{
	OFFSET -0.001795 -0.223333 0.028219
	CHANNELS 6 Xposition Yposition Zposition Zrotation Yrotation Xrotation 
	JOINT LeftUpLeg
	{
		OFFSET 0.069520 -0.091406 -0.006815
		CHANNELS 3 Zrotation Yrotation Xrotation
		JOINT LeftLeg
		{
			OFFSET 0.034277 -0.375199 -0.004496
			CHANNELS 3 Zrotation Yrotation Xrotation
			JOINT LeftFoot
			{
				OFFSET -0.013596 -0.397961 -0.043693
				CHANNELS 3 Zrotation Yrotation Xrotation
				JOINT LeftToe
				{
					OFFSET 0.026358 -0.055791 0.119288
					CHANNELS 3 Zrotation Yrotation Xrotation
					End Site
					{
						OFFSET 0.000000 0.000000 0.000000
					}
				}
			}
		}
	}
	JOINT RightUpLeg
	{
		OFFSET -0.067670 -0.090522 -0.004320
		CHANNELS 3 Zrotation Yrotation Xrotation
		JOINT RightLeg
		{
			OFFSET -0.038290 -0.382569 -0.008850
			CHANNELS 3 Zrotation Yrotation Xrotation
			JOINT RightFoot
			{
				OFFSET 0.015774 -0.398415 -0.042312
				CHANNELS 3 Zrotation Yrotation Xrotation
				JOINT RightToe
				{
					OFFSET -0.025372 -0.048144 0.123348
					CHANNELS 3 Zrotation Yrotation Xrotation
					End Site
					{
						OFFSET 0.000000 0.000000 0.000000
					}
				}
			}
		}
	}
	JOINT Spine
	{
		OFFSET -0.002533 0.108963 -0.026696
		CHANNELS 3 Zrotation Yrotation Xrotation
		JOINT Spine1
		{
			OFFSET 0.005487 0.135180 0.001092
			CHANNELS 3 Zrotation Yrotation Xrotation
			JOINT Spine2
			{
				OFFSET 0.001457 0.052922 0.025425
				CHANNELS 3 Zrotation Yrotation Xrotation
				JOINT Neck
				{
					OFFSET -0.002778 0.213870 -0.042857
					CHANNELS 3 Zrotation Yrotation Xrotation
					JOINT Head
					{
						OFFSET 0.005152 0.064970 0.051349
						CHANNELS 3 Zrotation Yrotation Xrotation
						End Site
						{
							OFFSET 0.000000 0.000000 0.000000
						}
					}
				}
				JOINT LeftShoulder
				{
					OFFSET 0.078845 0.121749 -0.034090
					CHANNELS 3 Zrotation Yrotation Xrotation
					JOINT LeftArm
					{
						OFFSET 0.090977 0.030469 -0.008868
						CHANNELS 3 Zrotation Yrotation Xrotation
						JOINT LeftForeArm
						{
							OFFSET 0.259612 -0.012772 -0.027456
							CHANNELS 3 Zrotation Yrotation Xrotation
							JOINT LeftHand
							{
								OFFSET 0.249234 0.008986 -0.001171
								CHANNELS 3 Zrotation Yrotation Xrotation
								End Site
								{
									OFFSET 0.000000 0.000000 0.000000
								}
							}
						}
					}
				}
				JOINT RightShoulder
				{
					OFFSET -0.081759 0.118833 -0.038615
					CHANNELS 3 Zrotation Yrotation Xrotation
					JOINT RightArm
					{
						OFFSET -0.096012 0.032551 -0.009143
						CHANNELS 3 Zrotation Yrotation Xrotation
						JOINT RightForeArm
						{
							OFFSET -0.253742 -0.013329 -0.021401
							CHANNELS 3 Zrotation Yrotation Xrotation
							JOINT RightHand
							{
								OFFSET -0.255298 0.007772 -0.005559
								CHANNELS 3 Zrotation Yrotation Xrotation
								End Site
								{
									OFFSET 0.000000 0.000000 0.000000
								}
							}
						}
					}
				}
			}
		}
	}
}
MOTION
Frames: 11
Frame Time: 0.050000
-0.348459 0.890359 0.663080 10.433304 51.321072 16.252729 -12.785608 -7.803163 -26.549688 -20.485883 -1.690051 34.597853 16.504779 27.150139 -9.514497 0.000000 0.000000 0.000000 -15.404376 -7.168533 -25.369213 -15.587487 1.329240 30.925739 1.563299 2.358081 17.237892 0.000000 0.000000 0.000000 10.621677 -3.508458 12.966820 -4.083382 -3.744749 18.605312 -1.368360 29.963893 -14.056061 12.786910 -3.755377 -13.519680 0.000000 0.000000 0.000000 -33.110782 -18.231361 -15.638586 -25.040662 29.725316 -3.002232 -11.400570 -32.424938 2.399288 0.000000 0.000000 0.000000 37.412370 21.624693 37.486424 -6.216798 19.212657 -2.356600 -6.640343 2.317247 -0.035282 0.000000 0.000000 0.000000 
-0.368903 0.874457 0.676211 13.722349 57.485862 18.338470 -12.354968 -9.462780 -29.054162 -22.925970 -3.045366 41.538658 16.481032 27.535703 -11.404205 0.000000 0.000000 0.000000 -16.200883 -8.444124 -24.070659 -18.501273 0.598793 35.530928 7.160334 11.606624 10.511296 0.000000 0.000000 0.000000 12.778662 -5.084830 15.450741 -4.046605 -3.555467 16.302083 -1.704309 31.154396 -12.038769 15.045250 -3.484535 -16.443860 0.000000 0.000000 0.000000 -33.714978 -19.540195 -17.330124 -22.961548 28.795269 -1.986431 -15.918120 -29.722378 3.521366 0.000000 0.000000 0.000000 35.020011 19.783870 36.128289 -7.708977 19.825377 -2.456419 -6.035893 1.150696 0.041277 0.000000 0.000000 0.000000 
-0.390037 0.860231 0.689597 17.309077 61.619363 21.388228 -12.248566 -10.658197 -30.624412 -24.012266 -4.123132 45.408139 16.525043 27.584982 -14.008971 0.000000 0.000000 0.000000 -16.985417 -9.590007 -23.742920 -19.301740 -0.685063 39.622297 8.923628 16.085748 1.938960 0.000000 0.000000 0.000000 13.850586 -6.362489 17.171619 -3.413587 -4.583059 16.919273 -4.037466 32.016444 -14.475893 17.002631 -4.801124 -16.087751 0.000000 0.000000 0.000000 -32.550530 -19.818549 -17.337962 -24.198001 29.142501 -2.302790 -16.695824 -28.901255 3.416915 0.000000 0.000000 0.000000 33.146803 19.406560 35.431497 -8.086701 20.331704 -2.499365 -5.916459 -0.350639 0.130531 0.000000 0.000000 0.000000 
-0.410750 0.849731 0.703288 19.243034 63.787164 22.306149 -10.625717 -10.685411 -31.415483 -26.463003 -4.307431 47.654248 16.559655 28.057487 -15.777814 0.000000 0.000000 0.000000 -16.522586 -10.484082 -25.268653 -21.761648 -1.308238 45.109891 11.346147 21.500659 -1.092640 0.000000 0.000000 0.000000 14.490383 -7.196837 18.313344 -3.821674 -4.778560 17.498143 -4.780242 33.372040 -15.939825 16.162935 -4.353514 -15.912528 0.000000 0.000000 0.000000 -31.949791 -18.965541 -18.008600 -24.615929 28.362513 -2.305611 -17.050154 -27.680698 3.286927 0.000000 0.000000 0.000000 32.974466 18.752674 35.381572 -7.675648 20.065040 -2.413753 -6.680899 -1.076537 0.194024 0.000000 0.000000 0.000000 
-0.430474 0.841297 0.717773 21.628406 65.228124 24.066633 -9.789202 -10.605078 -31.557390 -27.049940 -4.719970 48.461201 16.623790 27.696291 -17.928196 0.000000 0.000000 0.000000 -16.111223 -11.511407 -27.006931 -23.160641 -1.849514 49.203875 11.825757 23.589297 -3.466056 0.000000 0.000000 0.000000 14.678734 -7.804615 19.290428 -3.654449 -4.706689 16.706991 -4.347361 32.841849 -15.589090 14.822229 -3.752833 -15.418535 0.000000 0.000000 0.000000 -31.518813 -18.787653 -18.002543 -26.202095 27.987498 -2.588927 -15.122729 -27.033608 2.585941 0.000000 0.000000 0.000000 32.406223 19.294886 35.366013 -7.588274 20.327687 -2.426308 -7.408029 -0.425086 0.167679 0.000000 0.000000 0.000000 
-0.450468 0.836635 0.733133 24.205721 65.496258 25.889097 -8.600841 -10.069417 -31.395537 -28.028394 -4.579865 47.964655 16.516134 27.019277 -19.043401 0.000000 0.000000 0.000000 -15.679368 -11.724659 -27.738015 -23.994440 -1.918973 50.927915 11.430934 24.826935 -7.291655 0.000000 0.000000 0.000000 14.446461 -8.215190 20.326597 -3.933898 -4.226167 15.845202 -4.151622 32.157900 -15.336444 13.944267 -3.172677 -15.586746 0.000000 0.000000 0.000000 -31.869552 -19.270875 -17.688012 -26.095037 28.274367 -2.590351 -13.659755 -26.655039 2.282531 0.000000 0.000000 0.000000 32.559562 18.835154 34.740788 -7.049243 21.142207 -2.533323 -8.298270 1.309405 0.055348 0.000000 0.000000 0.000000 
-0.471402 0.832840 0.749122 25.359389 65.846402 26.410313 -7.222418 -9.557832 -31.289802 -28.110961 -4.719997 47.767007 16.536745 26.401731 -19.924313 0.000000 0.000000 0.000000 -15.172874 -11.723012 -28.126919 -23.506604 -2.612078 52.407777 10.798002 25.878788 -11.420186 0.000000 0.000000 0.000000 14.050140 -8.536524 21.305046 -3.633501 -3.855597 14.552029 -3.586728 31.039742 -13.827652 13.161109 -2.610728 -15.697210 0.000000 0.000000 0.000000 -32.494419 -19.994366 -17.515836 -25.107917 27.607701 -2.154439 -12.075280 -26.326180 2.024038 0.000000 0.000000 0.000000 32.014648 18.942110 34.138397 -6.609011 21.600511 -2.561430 -9.530928 3.152973 -0.099588 0.000000 0.000000 0.000000 
-0.493787 0.831339 0.765063 26.763395 65.958183 27.628423 -6.043568 -8.963870 -30.943391 -27.037689 -4.926272 46.246573 16.513550 24.735927 -20.660709 0.000000 0.000000 0.000000 -14.785913 -11.498987 -28.051696 -21.838463 -3.531148 52.179674 9.503236 25.853603 -17.059366 0.000000 0.000000 0.000000 14.173439 -8.310221 20.648338 -3.792707 -4.121306 15.248003 -3.957149 29.797731 -14.142112 11.811730 -2.106134 -15.237875 0.000000 0.000000 0.000000 -32.552217 -21.348343 -16.491752 -25.044489 27.437931 -1.969478 -10.326256 -26.788443 1.624798 0.000000 0.000000 0.000000 33.405714 19.066801 34.685864 -7.043492 21.137067 -2.539091 -10.529196 5.597743 -0.369497 0.000000 0.000000 0.000000 
-0.516217 0.833664 0.780721 26.409286 65.439139 26.821073 -4.139758 -8.137526 -30.554587 -26.494688 -4.743291 44.663306 16.329319 23.535268 -19.964640 0.000000 0.000000 0.000000 -13.788199 -10.789342 -28.300203 -20.381327 -4.152424 52.014632 8.970788 25.884324 -19.132344 0.000000 0.000000 0.000000 13.661851 -8.424121 21.403509 -4.535291 -2.968786 13.655256 -2.236612 28.400359 -11.313177 10.721279 -0.989958 -16.223198 0.000000 0.000000 0.000000 -34.014280 -22.812034 -15.964276 -23.579083 26.449865 -1.361989 -9.106908 -27.573417 1.621460 0.000000 0.000000 0.000000 32.582108 20.028573 34.219454 -5.327738 21.349842 -2.445825 -12.270812 8.458797 -0.759359 0.000000 0.000000 0.000000 
-0.537168 0.843458 0.795434 26.591475 65.769969 27.065666 -2.826138 -7.401870 -29.761344 -23.949346 -4.973191 41.913593 15.718017 20.229386 -18.362417 0.000000 0.000000 0.000000 -13.058645 -9.728490 -26.921936 -16.780948 -5.480246 48.876680 8.281365 23.228599 -20.615094 0.000000 0.000000 0.000000 13.856376 -8.060787 20.398615 -4.124135 -3.042752 13.142395 -2.592640 26.499527 -10.155430 9.434853 0.306822 -17.907662 0.000000 0.000000 0.000000 -33.526095 -24.459594 -14.373720 -24.626821 25.600892 -1.395211 -7.738580 -30.582922 1.289153 0.000000 0.000000 0.000000 33.793370 20.279738 34.879424 -4.902619 20.231035 -2.303253 -12.903535 12.441443 -1.335709 0.000000 0.000000 0.000000 
-0.555308 0.860614 0.808421 26.164930 66.283543 26.463914 -2.090525 -6.179954 -27.488652 -19.612090 -5.119061 37.581536 14.442170 15.031862 -16.166005 0.000000 0.000000 0.000000 -12.216318 -8.052271 -24.066487 -12.248549 -6.412860 43.293080 7.831934 18.828468 -19.253553 0.000000 0.000000 0.000000 13.476273 -7.832353 20.244016 -4.230298 -2.437715 11.602458 -2.392633 25.093526 -8.506563 9.726223 0.308520 -18.016311 0.000000 0.000000 0.000000 -34.322494 -26.268500 -13.636188 -24.334793 25.122318 -1.104479 -5.587477 -35.945546 0.830922 0.000000 0.000000 0.000000 34.576756 20.128732 35.280023 -2.507729 19.353610 -2.163535 -14.225138 15.735370 -1.993283 0.000000 0.000000 0.000000 
